  <svg viewBox="0 0 100 100" width="100" height="100" xmlns="http://www.w3.org/2000/svg">
  <rect width="100" height="100" style="fill : rgb(84, 127, 74);" rx="10" ry="10"></rect>
  <rect width="100" height="92.5" style="fill: rgb(117, 179, 103);" rx="10" ry="10"></rect>
  <g style="" transform="matrix(1.144607, 0, 0, 1.113277, -6.411588, -3.54938)">
    <path d="M 21.524700927734376 61.49689483642578 Q 20.974700927734375 61.49689483642578 20.824700927734376 60.99689483642578 L 11.974700927734375 27.14689483642578 L 11.924700927734374 26.946894836425777 Q 11.924700927734374 26.49689483642578 12.474700927734375 26.49689483642578 L 18.674700927734374 26.49689483642578 Q 19.174700927734378 26.49689483642578 19.324700927734376 26.99689483642578 L 24.074700927734376 47.34689483642578 Q 24.124700927734374 47.54689483642578 24.224700927734375 47.54689483642578 Q 24.324700927734376 47.54689483642578 24.374700927734374 47.34689483642578 L 28.974700927734375 27.04689483642578 Q 29.124700927734377 26.49689483642578 29.624700927734377 26.49689483642578 L 35.67470092773438 26.49689483642578 Q 36.224700927734375 26.49689483642578 36.37470092773438 26.99689483642578 L 41.37470092773438 47.34689483642578 Q 41.42470092773438 47.49689483642578 41.52470092773437 47.52189483642578 Q 41.62470092773438 47.54689483642578 41.67470092773438 47.34689483642578 L 46.27470092773438 27.04689483642578 Q 46.42470092773438 26.49689483642578 46.92470092773438 26.49689483642578 L 52.824700927734376 26.49689483642578 Q 53.52470092773438 26.49689483642578 53.37470092773438 27.14689483642578 L 45.17470092773438 60.99689483642578 Q 45.02470092773438 61.49689483642578 44.474700927734375 61.49689483642578 L 38.52470092773437 61.49689483642578 Q 38.02470092773437 61.49689483642578 37.87470092773438 60.99689483642578 L 32.77470092773437 39.346894836425776 Q 32.724700927734375 39.14689483642578 32.62470092773438 39.14689483642578 Q 32.52470092773437 39.14689483642578 32.474700927734375 39.346894836425776 L 27.724700927734375 60.946894836425784 Q 27.624700927734377 61.49689483642578 27.074700927734376 61.49689483642578 L 21.524700927734376 61.49689483642578 Z" transform="matrix(1.49282705783844, -0.4736490249633789, 0.4112569987773895, 1.3096680641174316, -16.268861770629883, 7.366017818450928)" style="fill: rgb(86, 122, 78); paint-order: fill;"></path>
    <path d="M 21.524700927734376 61.49689483642578 Q 20.974700927734375 61.49689483642578 20.824700927734376 60.99689483642578 L 11.974700927734375 27.14689483642578 L 11.924700927734374 26.946894836425777 Q 11.924700927734374 26.49689483642578 12.474700927734375 26.49689483642578 L 18.674700927734374 26.49689483642578 Q 19.174700927734378 26.49689483642578 19.324700927734376 26.99689483642578 L 24.074700927734376 47.34689483642578 Q 24.124700927734374 47.54689483642578 24.224700927734375 47.54689483642578 Q 24.324700927734376 47.54689483642578 24.374700927734374 47.34689483642578 L 28.974700927734375 27.04689483642578 Q 29.124700927734377 26.49689483642578 29.624700927734377 26.49689483642578 L 35.67470092773438 26.49689483642578 Q 36.224700927734375 26.49689483642578 36.37470092773438 26.99689483642578 L 41.37470092773438 47.34689483642578 Q 41.42470092773438 47.49689483642578 41.52470092773437 47.52189483642578 Q 41.62470092773438 47.54689483642578 41.67470092773438 47.34689483642578 L 46.27470092773438 27.04689483642578 Q 46.42470092773438 26.49689483642578 46.92470092773438 26.49689483642578 L 52.824700927734376 26.49689483642578 Q 53.52470092773438 26.49689483642578 53.37470092773438 27.14689483642578 L 45.17470092773438 60.99689483642578 Q 45.02470092773438 61.49689483642578 44.474700927734375 61.49689483642578 L 38.52470092773437 61.49689483642578 Q 38.02470092773437 61.49689483642578 37.87470092773438 60.99689483642578 L 32.77470092773437 39.346894836425776 Q 32.724700927734375 39.14689483642578 32.62470092773438 39.14689483642578 Q 32.52470092773437 39.14689483642578 32.474700927734375 39.346894836425776 L 27.724700927734375 60.946894836425784 Q 27.624700927734377 61.49689483642578 27.074700927734376 61.49689483642578 L 21.524700927734376 61.49689483642578 Z" style="fill: rgb(255, 255, 255); paint-order: fill; white-space: pre;" transform="matrix(1.49282705783844, -0.4736490249633789, 0.4112569987773895, 1.3096680641174316, -16.092138290405273, 4.178211212158203)"></path>
  </g>
</svg>